{
  "accessors": [
    {
      "bufferView": 2,
      "componentType": 5126,
      "count": 3932,
      "max": [
        0.12083712220191956,
        0.066413268446922302,
        0.087190575897693634
      ],
      "min": [
        -0.12975062429904938,
        -0.079238496720790863,
        -0.040991589426994324
      ],
      "type": "VEC3"
    },
    {
      "bufferView": 2,
      "byteOffset": 47184,
      "componentType": 5126,
      "count": 3932,
      "max": [
        0.99982154369354248,
        0.99987673759460449,
        0.99999654293060303
      ],
      "min": [
        -0.99921882152557373,
        -0.99982309341430664,
        -0.99146193265914917
      ],
      "type": "VEC3"
    },
    {
      "bufferView": 3,
      "componentType": 5126,
      "count": 3932,
      "max": [
        0.99997627735137939,
        0.99999815225601196,
        0.99914038181304932,
        1
      ],
      "min": [
        -0.99944257736206055,
        -0.99999874830245972,
        -0.99479353427886963,
        -1
      ],
      "type": "VEC4"
    },
    {
      "bufferView": 1,
      "componentType": 5126,
      "count": 3932,
      "max": [
        0.70695561170578003,
        1.0000001192092896
      ],
      "min": [
        0.0014308315003290772,
        0
      ],
      "type": "VEC2"
    },
    {
      "bufferView": 1,
      "byteOffset": 31456,
      "componentType": 5126,
      "count": 3932,
      "max": [
        0.70695561170578003,
        1.0000001192092896
      ],
      "min": [
        0.0014308315003290772,
        0
      ],
      "type": "VEC2"
    },
    {
      "bufferView": 0,
      "componentType": 5125,
      "count": 17184,
      "max": [
        3931
      ],
      "min": [
        0
      ],
      "type": "SCALAR"
    },
    {
      "bufferView": 2,
      "byteOffset": 94368,
      "componentType": 5126,
      "count": 1178,
      "max": [
        0.082382507622241974,
        0.062971167266368866,
        0.085939027369022369
      ],
      "min": [
        -0.084644213318824768,
        -0.076847687363624573,
        -0.0064815361984074116
      ],
      "type": "VEC3"
    },
    {
      "bufferView": 2,
      "byteOffset": 108504,
      "componentType": 5126,
      "count": 1178,
      "max": [
        0.99999654293060303,
        0.9997783899307251,
        0.99966275691986084
      ],
      "min": [
        -0.98254311084747314,
        -0.99969255924224854,
        -0.99591720104217529
      ],
      "type": "VEC3"
    },
    {
      "bufferView": 3,
      "byteOffset": 62912,
      "componentType": 5126,
      "count": 1178,
      "max": [
        0.99999815225601196,
        0.75106698274612427,
        0.99952292442321777,
        1
      ],
      "min": [
        -0.87920141220092773,
        -0.99630922079086304,
        -0.99915540218353271,
        -1
      ],
      "type": "VEC4"
    },
    {
      "bufferView": 1,
      "byteOffset": 62912,
      "componentType": 5126,
      "count": 1178,
      "max": [
        0.94614928960800171,
        0.9424586296081543
      ],
      "min": [
        0.061990551650524139,
        0.065915562212467194
      ],
      "type": "VEC2"
    },
    {
      "bufferView": 1,
      "byteOffset": 72336,
      "componentType": 5126,
      "count": 1178,
      "max": [
        0.94614928960800171,
        0.9424586296081543
      ],
      "min": [
        0.061990551650524139,
        0.065915562212467194
      ],
      "type": "VEC2"
    },
    {
      "bufferView": 0,
      "byteOffset": 68736,
      "componentType": 5125,
      "count": 6048,
      "max": [
        1177
      ],
      "min": [
        0
      ],
      "type": "SCALAR"
    }
  ],
  "asset": {
    "extras": {
      "author": "Anigraf (https://sketchfab.com/anigraf)",
      "license": "CC-BY-4.0 (http://creativecommons.org/licenses/by/4.0/)",
      "source": "https://sketchfab.com/3d-models/respirator-corona-virus-6ccda04be5a44492aff038fe6ba86f9a",
      "title": "Respirator (Corona-virus)"
    },
    "generator": "Sketchfab-8.15.0",
    "version": "2.0"
  },
  "bufferViews": [
    {
      "buffer": 0,
      "byteLength": 92928,
      "byteOffset": 0,
      "name": "floatBufferViews",
      "target": 34963
    },
    {
      "buffer": 0,
      "byteLength": 81760,
      "byteOffset": 92928,
      "byteStride": 8,
      "name": "floatBufferViews",
      "target": 34962
    },
    {
      "buffer": 0,
      "byteLength": 122640,
      "byteOffset": 174688,
      "byteStride": 12,
      "name": "floatBufferViews",
      "target": 34962
    },
    {
      "buffer": 0,
      "byteLength": 81760,
      "byteOffset": 297328,
      "byteStride": 16,
      "name": "floatBufferViews",
      "target": 34962
    }
  ],
  "buffers": [
    {
      "byteLength": 379088,
      "uri": "scene.bin"
    }
  ],
  "extensionsRequired": [
    "KHR_materials_pbrSpecularGlossiness"
  ],
  "extensionsUsed": [
    "KHR_materials_pbrSpecularGlossiness"
  ],
  "images": [
    {
      "uri": "textures/Reunat_diffuse.png"
    },
    {
      "uri": "textures/Reunat_specularGlossiness.png"
    },
    {
      "uri": "textures/Reunat_normal.png"
    },
    {
      "uri": "textures/Keskiosa_diffuse.png"
    },
    {
      "uri": "textures/Keskiosa_specularGlossiness.png"
    },
    {
      "uri": "textures/Keskiosa_normal.png"
    }
  ],
  "materials": [
    {
      "doubleSided": true,
      "extensions": {
        "KHR_materials_pbrSpecularGlossiness": {
          "diffuseFactor": [
            1,
            1,
            1,
            1
          ],
          "diffuseTexture": {
            "index": 0,
            "texCoord": 0
          },
          "glossinessFactor": 1,
          "specularFactor": [
            0,
            0,
            0
          ],
          "specularGlossinessTexture": {
            "index": 1,
            "texCoord": 0
          }
        }
      },
      "name": "Reunat",
      "normalTexture": {
        "index": 2,
        "scale": 1,
        "texCoord": 0
      }
    },
    {
      "doubleSided": true,
      "extensions": {
        "KHR_materials_pbrSpecularGlossiness": {
          "diffuseFactor": [
            1,
            1,
            1,
            1
          ],
          "diffuseTexture": {
            "index": 3,
            "texCoord": 0
          },
          "glossinessFactor": 1,
          "specularFactor": [
            0,
            0,
            0
          ],
          "specularGlossinessTexture": {
            "index": 4,
            "texCoord": 0
          }
        }
      },
      "name": "Keskiosa",
      "normalTexture": {
        "index": 5,
        "scale": 1,
        "texCoord": 0
      }
    }
  ],
  "meshes": [
    {
      "name": "Maski_Reunat_0",
      "primitives": [
        {
          "attributes": {
            "NORMAL": 1,
            "POSITION": 0,
            "TANGENT": 2,
            "TEXCOORD_0": 3,
            "TEXCOORD_1": 4
          },
          "indices": 5,
          "material": 0,
          "mode": 4
        }
      ]
    },
    {
      "name": "Maski_Keskiosa_0",
      "primitives": [
        {
          "attributes": {
            "NORMAL": 7,
            "POSITION": 6,
            "TANGENT": 8,
            "TEXCOORD_0": 9,
            "TEXCOORD_1": 10
          },
          "indices": 11,
          "material": 1,
          "mode": 4
        }
      ]
    }
  ],
  "nodes": [
    {
      "children": [
        1
      ],
      "name": "RootNode (gltf orientation matrix)",
      "rotation": [
        -0.70710678118654746,
        -0,
        -0,
        0.70710678118654757
      ]
    },
    {
      "children": [
        2
      ],
      "name": "RootNode (model correction matrix)"
    },
    {
      "children": [
        3
      ],
      "matrix": [
        1,
        0,
        0,
        0,
        0,
        0,
        1,
        0,
        0,
        -1,
        0,
        0,
        0,
        0,
        0,
        1
      ],
      "name": "Kasvomaski.fbx"
    },
    {
      "children": [
        4
      ],
      "name": "RootNode"
    },
    {
      "children": [
        5,
        6
      ],
      "matrix": [
        100,
        0,
        0,
        0,
        0,
        99.999999999999901,
        4.371138828673792e-06,
        0,
        0,
        -4.371138828673792e-06,
        99.999999999999901,
        0,
        0,
        0,
        0,
        1
      ],
      "name": "Maski"
    },
    {
      "mesh": 0,
      "name": "Maski_Reunat_0"
    },
    {
      "mesh": 1,
      "name": "Maski_Keskiosa_0"
    }
  ],
  "samplers": [
    {
      "magFilter": 9729,
      "minFilter": 9987,
      "wrapS": 10497,
      "wrapT": 10497
    }
  ],
  "scene": 0,
  "scenes": [
    {
      "name": "OSG_Scene",
      "nodes": [
        0
      ]
    }
  ],
  "textures": [
    {
      "sampler": 0,
      "source": 0
    },
    {
      "sampler": 0,
      "source": 1
    },
    {
      "sampler": 0,
      "source": 2
    },
    {
      "sampler": 0,
      "source": 3
    },
    {
      "sampler": 0,
      "source": 4
    },
    {
      "sampler": 0,
      "source": 5
    }
  ]
}

